<?xml version="1.0" encoding="UTF-8"?>
<svg width="86px" height="103px" viewBox="0 0 86 103" version="1.1" xmlns="http://www.w3.org/2000/svg" xmlns:xlink="http://www.w3.org/1999/xlink">
    <title>VOX-Logo-V1-Blue</title>
    <g id="Page-1" stroke="none" stroke-width="1" fill="none" fill-rule="evenodd">
        <g id="VOX-Logo-V1-Blue" transform="translate(0.356846, -0.000000)" fill-rule="nonzero">
            <path d="M42.7025121,0 L85.5166542,64.6986244 L0,64.6986244 L42.7025121,0 Z M42.8717583,26.8849419 L27.7117074,49.9942887 L58.2884668,49.9942887 L42.8717583,26.8849419 Z" id="Triangle" fill="#FF0000" transform="translate(42.758327, 32.349312) scale(1, -1) translate(-42.758327, -32.349312) "></path>
            <g id="VOX-Copy-4" transform="translate(5.039479, 77.249285)" fill="#FFFFFF">
                <polygon id="Path" points="0 0.486048058 7.5337449 0.486048058 13.0538621 15.8659973 18.5739794 0.486048058 25.9688534 0.486048058 16.1090213 24.9620395 9.85983203 24.9620395"></polygon>
                <path d="M39.6696518,19.1988983 C40.5954576,19.1988983 41.4402555,19.0253097 42.2040453,18.6781325 C42.9678351,18.3309553 43.6158991,17.8622661 44.1482375,17.2720649 C44.6805758,16.6818637 45.0971885,15.9932956 45.3980754,15.2063607 C45.6989622,14.4194257 45.8494057,13.5862005 45.8494057,12.7066849 L45.8494057,12.6372495 C45.8494057,11.757734 45.6989622,10.9245087 45.3980754,10.1375738 C45.0971885,9.35063883 44.6690033,8.65628446 44.1135198,8.05451067 C43.5580363,7.45273689 42.8983996,6.97247512 42.1346098,6.61372536 C41.37082,6.2549756 40.5260222,6.07560072 39.6002164,6.07560072 C38.6744106,6.07560072 37.835399,6.24918932 37.0831818,6.5963665 C36.3309646,6.94354369 35.6829005,7.41223288 35.1389896,8.0024341 C34.5950786,8.59263531 34.178466,9.28120339 33.8891517,10.0681383 C33.5998374,10.8550733 33.4551802,11.6882985 33.4551802,12.5678141 L33.4551802,12.6372495 C33.4551802,13.516765 33.6056237,14.3499903 33.9065106,15.1369252 C34.2073974,15.9238602 34.6297964,16.6182146 35.1737073,17.2199883 C35.7176182,17.8217621 36.3714686,18.3020239 37.1352584,18.6607737 C37.8990482,19.0195234 38.743846,19.1988983 39.6696518,19.1988983 Z M39.6002164,25.274499 C37.7254596,25.274499 35.9895737,24.9446807 34.3925586,24.285044 C32.7955436,23.6254074 31.4184074,22.728533 30.2611501,21.5944209 C29.1038928,20.4603087 28.1954459,19.1294629 27.5358092,17.6018832 C26.8761726,16.0743036 26.5463542,14.4425709 26.5463542,12.7066849 L26.5463542,12.6372495 C26.5463542,10.9013636 26.8761726,9.26384453 27.5358092,7.72469235 C28.1954459,6.18554017 29.1154654,4.84312172 30.2958678,3.69743701 C31.4762703,2.5517523 32.864979,1.64909163 34.461994,0.989454975 C36.0590091,0.329818325 37.794895,0 39.6696518,0 C41.5444086,0 43.2802945,0.329818325 44.8773096,0.989454975 C46.4743246,1.64909163 47.8514608,2.54596602 49.0087181,3.68007815 C50.1659753,4.81419029 51.0744223,6.14503616 51.734059,7.67261577 C52.3936956,9.20019538 52.7235139,10.8319281 52.7235139,12.5678141 L52.7235139,12.6372495 C52.7235139,14.3731354 52.3936956,16.0106545 51.734059,17.5498067 C51.0744223,19.0889588 50.1544028,20.4313773 48.9740004,21.577062 C47.7935979,22.7227467 46.4048892,23.6254074 44.8078741,24.285044 C43.2108591,24.9446807 41.4749732,25.274499 39.6002164,25.274499 Z" id="Shape"></path>
                <polygon id="Path" points="61.8415735 12.4289432 53.8564983 0.486048058 61.5985495 0.486048058 65.9035466 7.32543859 70.2432614 0.486048058 77.811724 0.486048058 69.8266488 12.3595078 78.1589012 24.788451 70.41685 24.788451 65.7646757 17.4630124 61.0777837 24.788451 53.5093211 24.788451"></polygon>
            </g>
        </g>
    </g>
</svg>